<svg width="14" height="14" viewBox="0 0 14 14" fill="none" xmlns="http://www.w3.org/2000/svg">
<path d="M10.207 0.4375C9.55044 0.447767 8.90816 0.632023 8.34507 0.971663C7.78197 1.3113 7.318 1.7943 7 2.37187C6.682 1.7943 6.21803 1.3113 5.65493 0.971663C5.09184 0.632023 4.44956 0.447767 3.79296 0.4375C2.74627 0.483216 1.76011 0.943516 1.04994 1.71784C0.339772 2.49216 -0.0366824 3.51756 0.00282284 4.57002C0.00282284 8.54134 6.39125 13.1281 6.66297 13.3228L7 13.5625L7.33703 13.3228C7.60875 13.1293 13.9972 8.54134 13.9972 4.57002C14.0367 3.51756 13.6602 2.49216 12.9501 1.71784C12.2399 0.943516 11.2537 0.483216 10.207 0.4375ZM7 12.1193C5.10318 10.6949 1.16902 7.19549 1.16902 4.57002C1.12916 3.82834 1.38265 3.10091 1.8742 2.54637C2.36575 1.99184 3.05548 1.65519 3.79296 1.60985C4.53044 1.65519 5.22017 1.99184 5.71172 2.54637C6.20327 3.10091 6.45676 3.82834 6.4169 4.57002H7.5831C7.54324 3.82834 7.79673 3.10091 8.28827 2.54637C8.77983 1.99184 9.46956 1.65519 10.207 1.60985C10.9445 1.65519 11.6343 1.99184 12.1258 2.54637C12.6174 3.10091 12.8708 3.82834 12.831 4.57002C12.831 7.19666 8.89682 10.6949 7 12.1193Z" fill="#1D1D1D"/>
<path d="M7 12.1193C5.10318 10.6949 1.16902 7.19549 1.16902 4.57002C1.12916 3.82834 1.38265 3.10091 1.8742 2.54637C2.36575 1.99184 3.05548 1.65519 3.79296 1.60985C4.53044 1.65519 5.22017 1.99184 5.71172 2.54637C6.20327 3.10091 6.45676 3.82834 6.4169 4.57002H7.5831C7.54324 3.82834 7.79673 3.10091 8.28827 2.54637C8.77983 1.99184 9.46956 1.65519 10.207 1.60985C10.9445 1.65519 11.6343 1.99184 12.1258 2.54637C12.6174 3.10091 12.8708 3.82834 12.831 4.57002C12.831 7.19666 8.89682 10.6949 7 12.1193Z" fill="#1D1D1D"/>
</svg>
